<svg width="348" height="104" viewBox="0 0 348 104" fill="none" xmlns="http://www.w3.org/2000/svg">
<path d="M40.4986 72.624C40.4986 66.288 39.4426 61.632 37.3306 58.656C35.3146 55.68 31.6666 54.192 26.3866 54.192H12.9946V91.776C14.3386 91.872 15.7786 91.968 17.3146 92.064C18.6586 92.16 20.0986 92.256 21.6346 92.352C23.1706 92.448 24.7066 92.496 26.2426 92.496C28.1626 92.496 29.9866 92.256 31.7146 91.776C33.4426 91.296 34.9306 90.336 36.1786 88.896C37.5226 87.456 38.5786 85.44 39.3466 82.848C40.1146 80.256 40.4986 76.848 40.4986 72.624ZM38.3386 27.552C38.3386 21.6 37.4266 17.28 35.6026 14.592C33.8746 11.904 30.3226 10.56 24.9466 10.56C21.4906 10.56 18.6586 10.704 16.4506 10.992C15.2026 11.184 14.0506 11.328 12.9946 11.424V43.824H24.9466C26.3866 43.824 27.8746 43.68 29.4106 43.392C31.0426 43.104 32.4826 42.432 33.7306 41.376C35.0746 40.32 36.1786 38.736 37.0426 36.624C37.9066 34.416 38.3386 31.392 38.3386 27.552ZM53.3146 71.616C53.3146 77.664 52.6426 82.704 51.2986 86.736C49.9546 90.672 48.0346 93.888 45.5386 96.384C43.1386 98.784 40.1626 100.512 36.6106 101.568C33.1546 102.528 29.2666 103.008 24.9466 103.008C21.8746 103.008 18.8986 102.96 16.0186 102.864C13.1386 102.864 10.5466 102.768 8.24256 102.576C5.55456 102.384 2.96256 102.192 0.466563 102V1.19999C3.15456 1.008 5.79456 0.815995 8.38656 0.623992C10.5946 0.431994 13.0426 0.335996 15.7306 0.335996C18.4186 0.239997 20.9146 0.191998 23.2186 0.191998C27.5386 0.191998 31.3786 0.671997 34.7386 1.632C38.1946 2.496 41.1226 3.984 43.5226 6.096C45.9226 8.20799 47.7466 10.944 48.9946 14.304C50.2426 17.664 50.8666 21.744 50.8666 26.544C50.8666 32.592 49.6666 37.44 47.2666 41.088C44.8666 44.64 42.2266 47.04 39.3466 48.288C40.7866 48.768 42.3226 49.536 43.9546 50.592C45.5866 51.552 47.0746 52.944 48.4186 54.768C49.8586 56.496 51.0106 58.752 51.8746 61.536C52.8346 64.224 53.3146 67.584 53.3146 71.616ZM72.7141 14.16V1.19999H86.3941V14.16H72.7141ZM73.4341 102V30H85.6741V102H73.4341ZM122.411 40.8V84.72C122.411 85.392 122.507 86.208 122.699 87.168C122.891 88.032 123.227 88.896 123.707 89.76C124.283 90.528 125.003 91.2 125.867 91.776C126.827 92.352 128.075 92.64 129.611 92.64C131.819 92.64 133.691 92.496 135.227 92.208C136.763 91.824 138.059 91.488 139.115 91.2V101.28C138.155 101.568 136.475 101.904 134.075 102.288C131.771 102.768 129.323 103.008 126.731 103.008C123.851 103.008 121.355 102.528 119.243 101.568C117.131 100.608 115.403 99.264 114.059 97.536C112.715 95.808 111.707 93.792 111.035 91.488C110.459 89.184 110.171 86.688 110.171 84V40.8H100.811V30H110.171V12.72H122.411V30H139.115V40.8H122.411ZM205.397 100.56C201.557 101.328 197.813 101.904 194.165 102.288C190.517 102.768 186.725 103.008 182.789 103.008C177.317 103.008 172.661 102.288 168.821 100.848C164.981 99.312 161.861 96.576 159.461 92.64C157.157 88.704 155.477 83.328 154.421 76.512C153.365 69.6 152.837 60.768 152.837 50.016C152.837 39.36 153.509 30.816 154.853 24.384C156.197 17.856 158.213 12.816 160.901 9.26399C163.685 5.61599 167.189 3.216 171.413 2.064C175.637 0.815998 180.581 0.191998 186.245 0.191998C188.741 0.191998 191.573 0.431997 194.741 0.911997C198.005 1.296 200.549 1.728 202.373 2.208V12.576C199.301 12 196.181 11.568 193.013 11.28C189.845 10.896 186.725 10.704 183.653 10.704C180.581 10.704 177.893 11.184 175.589 12.144C173.381 13.008 171.509 14.88 169.973 17.76C168.533 20.64 167.429 24.72 166.661 30C165.989 35.28 165.653 42.288 165.653 51.024C165.653 60.048 165.941 67.296 166.517 72.768C167.189 78.24 168.197 82.464 169.541 85.44C170.885 88.32 172.565 90.24 174.581 91.2C176.693 92.064 179.189 92.496 182.069 92.496C183.701 92.496 185.525 92.4 187.541 92.208C189.557 92.016 191.525 91.776 193.445 91.488V59.52H180.629V49.008H205.397V100.56ZM264.581 102L263.573 96.096C261.557 98.304 259.205 100.032 256.517 101.28C253.829 102.432 250.661 103.008 247.013 103.008C242.981 103.008 239.621 102.48 236.933 101.424C234.341 100.368 232.229 98.784 230.597 96.672C229.061 94.464 227.957 91.728 227.285 88.464C226.613 85.2 226.277 81.36 226.277 76.944V30H238.517V78.384C238.517 80.688 238.613 82.704 238.805 84.432C239.093 86.16 239.621 87.648 240.389 88.896C241.157 90.144 242.213 91.104 243.557 91.776C244.901 92.352 246.677 92.64 248.885 92.64C250.901 92.64 252.725 92.256 254.357 91.488C255.989 90.72 257.381 89.76 258.533 88.608C259.685 87.456 260.597 86.208 261.269 84.864C261.941 83.424 262.325 82.08 262.421 80.832V30H274.661V102H264.581ZM337.187 102L336.179 95.952C333.971 98.16 331.475 99.888 328.691 101.136C325.907 102.384 322.691 103.008 319.043 103.008C314.435 103.008 310.643 102.288 307.667 100.848C304.691 99.408 302.291 97.296 300.467 94.512C298.643 91.728 297.347 88.224 296.579 84C295.907 79.68 295.571 74.736 295.571 69.168C295.571 54.96 298.019 44.736 302.915 38.496C307.907 32.16 315.923 28.992 326.963 28.992C328.595 28.992 330.083 29.04 331.427 29.136C332.771 29.232 333.971 29.376 335.027 29.568V1.19999H347.267V102H337.187ZM321.347 92.64C323.555 92.64 325.523 92.256 327.251 91.488C328.979 90.72 330.419 89.712 331.571 88.464C332.723 87.216 333.587 85.872 334.163 84.432C334.739 82.992 335.027 81.648 335.027 80.4V39.936C333.971 39.744 332.675 39.6 331.139 39.504C329.603 39.408 327.731 39.36 325.523 39.36C322.067 39.36 319.235 40.08 317.027 41.52C314.819 42.864 313.043 44.88 311.699 47.568C310.355 50.16 309.395 53.424 308.819 57.36C308.339 61.2 308.099 65.616 308.099 70.608C308.099 74.928 308.339 78.528 308.819 81.408C309.395 84.192 310.211 86.448 311.267 88.176C312.323 89.808 313.667 90.96 315.299 91.632C317.027 92.304 319.043 92.64 321.347 92.64Z" fill="#1E2430"/>
</svg>
